<?xml version="1.0" encoding="utf-8"?>
<!-- Generator: Adobe Illustrator 19.0.0, SVG Export Plug-In . SVG Version: 6.00 Build 0)  -->
<svg version="1.1" id="Layer_1" xmlns="http://www.w3.org/2000/svg" xmlns:xlink="http://www.w3.org/1999/xlink" x="0px" y="0px"
	 width="40px" height="40px" viewBox="0 0 40 40" style="enable-background:new 0 0 40 40;" xml:space="preserve">
<style type="text/css">
	.st0{fill:#FFFFFF;}
</style>
<path class="st0" d="M20,6.7c-8,0-15,5.7-15,13.7s7,12.9,15,12.9c8,0,15-4.9,15-12.9S28,6.7,20,6.7z M16.9,18.6
	c-3,2.8-7,3.3-9.1,1.1c-1.9-2-1.4-5.5,0.9-8.2c-1.3,2-1.4,4.3-0.1,5.6c1.6,1.7,4.8,1.3,7.1-0.9c2.3-2.2,2.9-5.3,1.3-7.1
	c-0.5-0.5-1.1-0.8-1.8-1c1.3,0,2.5,0.5,3.3,1.4C20.6,11.8,19.8,15.8,16.9,18.6z M23.1,18.6c-3-2.8-3.7-6.8-1.6-9
	c0.8-0.9,2-1.3,3.3-1.4c-0.7,0.1-1.3,0.5-1.8,1c-1.6,1.7-1,4.9,1.3,7.1c2.3,2.2,5.5,2.6,7.1,0.9c1.3-1.4,1.2-3.6-0.1-5.6
	c2.3,2.7,2.7,6.2,0.9,8.2C30.1,21.8,26.1,21.3,23.1,18.6z"/>
</svg>
